<svg version="1.1" viewBox="0.0 0.0 988.0 607.0" fill="none" stroke="none" stroke-linecap="square" stroke-miterlimit="10" width="988" height="607" xmlns:xlink="http://www.w3.org/1999/xlink" xmlns="http://www.w3.org/2000/svg"><path fill="#ffffff" fill-opacity="0.0" d="M0 0L988.0 0L988.0 607.0L0 607.0L0 0Z" fill-rule="nonzero"/><path stroke="#333333" stroke-width="1.0" stroke-linecap="butt" d="M57.5 556.5L957.5 556.5" fill-rule="nonzero"/><path stroke="#cccccc" stroke-width="1.0" stroke-linecap="butt" d="M57.5 398.5L957.5 398.5" fill-rule="nonzero"/><path stroke="#cccccc" stroke-width="1.0" stroke-linecap="butt" d="M57.5 239.5L957.5 239.5" fill-rule="nonzero"/><path stroke="#cccccc" stroke-width="1.0" stroke-linecap="butt" d="M57.5 81.5L957.5 81.5" fill-rule="nonzero"/><clipPath id="id_0"><path d="M57.35 81.583336L957.65 81.583336L957.65 556.65L57.35 556.65L57.35 81.583336Z" clip-rule="nonzero"/></clipPath><path stroke="#000000" stroke-width="2.0" stroke-linecap="butt" stroke-opacity="0.0" clip-path="url(#id_0)" d="M132.0 557.0L59.0 557.0L59.0 464.0C59.0 462.89542 59.89543 462.0 61.0 462.0L130.0 462.0C131.10457 462.0 132.0 462.89542 132.0 464.0Z" fill-rule="nonzero"/><path fill="#4285f4" clip-path="url(#id_0)" d="M132.0 557.0L59.0 557.0L59.0 464.0C59.0 462.89542 59.89543 462.0 61.0 462.0L130.0 462.0C131.10457 462.0 132.0 462.89542 132.0 464.0Z" fill-rule="nonzero"/><path stroke="#000000" stroke-width="2.0" stroke-linecap="butt" stroke-opacity="0.0" clip-path="url(#id_0)" d="M207.0 557.0L134.0 557.0L134.0 464.0C134.0 462.89542 134.89543 462.0 136.0 462.0L205.0 462.0C206.10457 462.0 207.0 462.89542 207.0 464.0Z" fill-rule="nonzero"/><path fill="#4285f4" clip-path="url(#id_0)" d="M207.0 557.0L134.0 557.0L134.0 464.0C134.0 462.89542 134.89543 462.0 136.0 462.0L205.0 462.0C206.10457 462.0 207.0 462.89542 207.0 464.0Z" fill-rule="nonzero"/><path stroke="#000000" stroke-width="2.0" stroke-linecap="butt" stroke-opacity="0.0" clip-path="url(#id_0)" d="M282.0 557.0L209.0 557.0L209.0 400.0C209.0 398.89542 209.89543 398.0 211.0 398.0L280.0 398.0C281.10458 398.0 282.0 398.89542 282.0 400.0Z" fill-rule="nonzero"/><path fill="#4285f4" clip-path="url(#id_0)" d="M282.0 557.0L209.0 557.0L209.0 400.0C209.0 398.89542 209.89543 398.0 211.0 398.0L280.0 398.0C281.10458 398.0 282.0 398.89542 282.0 400.0Z" fill-rule="nonzero"/><path stroke="#000000" stroke-width="2.0" stroke-linecap="butt" stroke-opacity="0.0" clip-path="url(#id_0)" d="M357.0 557.0L284.0 557.0L284.0 289.0C284.0 287.89542 284.89542 287.0 286.0 287.0L355.0 287.0C356.10458 287.0 357.0 287.89542 357.0 289.0Z" fill-rule="nonzero"/><path fill="#4285f4" clip-path="url(#id_0)" d="M357.0 557.0L284.0 557.0L284.0 289.0C284.0 287.89542 284.89542 287.0 286.0 287.0L355.0 287.0C356.10458 287.0 357.0 287.89542 357.0 289.0Z" fill-rule="nonzero"/><path stroke="#000000" stroke-width="2.0" stroke-linecap="butt" stroke-opacity="0.0" clip-path="url(#id_0)" d="M432.0 557.0L359.0 557.0L359.0 131.0C359.0 129.89543 359.89542 129.0 361.0 129.0L430.0 129.0C431.10458 129.0 432.0 129.89543 432.0 131.0Z" fill-rule="nonzero"/><path fill="#4285f4" clip-path="url(#id_0)" d="M432.0 557.0L359.0 557.0L359.0 131.0C359.0 129.89543 359.89542 129.0 361.0 129.0L430.0 129.0C431.10458 129.0 432.0 129.89543 432.0 131.0Z" fill-rule="nonzero"/><path stroke="#000000" stroke-width="2.0" stroke-linecap="butt" stroke-opacity="0.0" clip-path="url(#id_0)" d="M507.0 557.0L434.0 557.0L434.0 163.0C434.0 161.89543 434.89542 161.0 436.0 161.0L505.0 161.0C506.10458 161.0 507.0 161.89543 507.0 163.0Z" fill-rule="nonzero"/><path fill="#4285f4" clip-path="url(#id_0)" d="M507.0 557.0L434.0 557.0L434.0 163.0C434.0 161.89543 434.89542 161.0 436.0 161.0L505.0 161.0C506.10458 161.0 507.0 161.89543 507.0 163.0Z" fill-rule="nonzero"/><path stroke="#000000" stroke-width="2.0" stroke-linecap="butt" stroke-opacity="0.0" clip-path="url(#id_0)" d="M582.0 557.0L509.0 557.0L509.0 163.0C509.0 161.89543 509.89542 161.0 511.0 161.0L580.0 161.0C581.10455 161.0 582.0 161.89543 582.0 163.0Z" fill-rule="nonzero"/><path fill="#4285f4" clip-path="url(#id_0)" d="M582.0 557.0L509.0 557.0L509.0 163.0C509.0 161.89543 509.89542 161.0 511.0 161.0L580.0 161.0C581.10455 161.0 582.0 161.89543 582.0 163.0Z" fill-rule="nonzero"/><path stroke="#000000" stroke-width="2.0" stroke-linecap="butt" stroke-opacity="0.0" clip-path="url(#id_0)" d="M657.0 557.0L584.0 557.0L584.0 242.0C584.0 240.89543 584.89545 240.0 586.0 240.0L655.0 240.0C656.10455 240.0 657.0 240.89543 657.0 242.0Z" fill-rule="nonzero"/><path fill="#4285f4" clip-path="url(#id_0)" d="M657.0 557.0L584.0 557.0L584.0 242.0C584.0 240.89543 584.89545 240.0 586.0 240.0L655.0 240.0C656.10455 240.0 657.0 240.89543 657.0 242.0Z" fill-rule="nonzero"/><path stroke="#000000" stroke-width="2.0" stroke-linecap="butt" stroke-opacity="0.0" clip-path="url(#id_0)" d="M732.0 557.0L659.0 557.0L659.0 305.0C659.0 303.89542 659.89545 303.0 661.0 303.0L730.0 303.0C731.10455 303.0 732.0 303.89542 732.0 305.0Z" fill-rule="nonzero"/><path fill="#4285f4" clip-path="url(#id_0)" d="M732.0 557.0L659.0 557.0L659.0 305.0C659.0 303.89542 659.89545 303.0 661.0 303.0L730.0 303.0C731.10455 303.0 732.0 303.89542 732.0 305.0Z" fill-rule="nonzero"/><path stroke="#000000" stroke-width="2.0" stroke-linecap="butt" stroke-opacity="0.0" clip-path="url(#id_0)" d="M807.0 557.0L734.0 557.0L734.0 527.0C734.0 525.89545 734.89545 525.0 736.0 525.0L805.0 525.0C806.10455 525.0 807.0 525.89545 807.0 527.0Z" fill-rule="nonzero"/><path fill="#4285f4" clip-path="url(#id_0)" d="M807.0 557.0L734.0 557.0L734.0 527.0C734.0 525.89545 734.89545 525.0 736.0 525.0L805.0 525.0C806.10455 525.0 807.0 525.89545 807.0 527.0Z" fill-rule="nonzero"/><path stroke="#000000" stroke-width="2.0" stroke-linecap="butt" stroke-opacity="0.0" clip-path="url(#id_0)" d="M882.0 557.0L809.0 557.0L809.0 527.0C809.0 525.89545 809.89545 525.0 811.0 525.0L880.0 525.0C881.10455 525.0 882.0 525.89545 882.0 527.0Z" fill-rule="nonzero"/><path fill="#4285f4" clip-path="url(#id_0)" d="M882.0 557.0L809.0 557.0L809.0 527.0C809.0 525.89545 809.89545 525.0 811.0 525.0L880.0 525.0C881.10455 525.0 882.0 525.89545 882.0 527.0Z" fill-rule="nonzero"/><path stroke="#000000" stroke-width="2.0" stroke-linecap="butt" stroke-opacity="0.0" clip-path="url(#id_0)" d="M957.0 557.0L884.0 557.0L884.0 543.0C884.0 541.89545 884.89545 541.0 886.0 541.0L955.0 541.0C956.10455 541.0 957.0 541.89545 957.0 543.0Z" fill-rule="nonzero"/><path fill="#4285f4" clip-path="url(#id_0)" d="M957.0 557.0L884.0 557.0L884.0 543.0C884.0 541.89545 884.89545 541.0 886.0 541.0L955.0 541.0C956.10455 541.0 957.0 541.89545 957.0 543.0Z" fill-rule="nonzero"/><path fill="#000000" d="M44.85 556.41565Q44.85 554.8844 45.1625 553.9625Q45.475 553.025 46.084373 552.525Q46.709373 552.025 47.646873 552.025Q48.334373 552.025 48.85 552.3063Q49.38125 552.5875 49.725 553.1188Q50.06875 553.6344 50.25625 554.3844Q50.44375 555.1344 50.44375 556.41565Q50.44375 557.9313 50.13125 558.85315Q49.834373 559.775 49.209373 560.29065Q48.6 560.79065 47.646873 560.79065Q46.4125 560.79065 45.69375 559.9Q44.85 558.8375 44.85 556.41565ZM45.928123 556.41565Q45.928123 558.525 46.428123 559.22815Q46.928123 559.9313 47.646873 559.9313Q48.38125 559.9313 48.865623 559.22815Q49.365623 558.525 49.365623 556.41565Q49.365623 554.29065 48.865623 553.60315Q48.38125 552.9 47.63125 552.9Q46.9125 552.9 46.475 553.5094Q45.928123 554.29065 45.928123 556.41565Z" fill-rule="nonzero"/><path fill="#000000" d="M41.81875 402.29443L40.771873 402.29443L40.771873 395.57568Q40.38125 395.93506 39.75625 396.31006Q39.146873 396.66943 38.6625 396.8413L38.6625 395.82568Q39.5375 395.4038 40.19375 394.82568Q40.865623 394.23193 41.146873 393.66943L41.81875 393.66943L41.81875 402.29443ZM44.85 398.06006Q44.85 396.5288 45.1625 395.60693Q45.475 394.66943 46.084373 394.16943Q46.709373 393.66943 47.646873 393.66943Q48.334373 393.66943 48.85 393.95068Q49.38125 394.23193 49.725 394.76318Q50.06875 395.2788 50.25625 396.0288Q50.44375 396.7788 50.44375 398.06006Q50.44375 399.57568 50.13125 400.49756Q49.834373 401.41943 49.209373 401.93506Q48.6 402.43506 47.646873 402.43506Q46.4125 402.43506 45.69375 401.54443Q44.85 400.48193 44.85 398.06006ZM45.928123 398.06006Q45.928123 400.16943 46.428123 400.87256Q46.928123 401.57568 47.646873 401.57568Q48.38125 401.57568 48.865623 400.87256Q49.365623 400.16943 49.365623 398.06006Q49.365623 395.93506 48.865623 395.24756Q48.38125 394.54443 47.63125 394.54443Q46.9125 394.54443 46.475 395.1538Q45.928123 395.93506 45.928123 398.06006Z" fill-rule="nonzero"/><path fill="#000000" d="M43.396873 242.92326L43.396873 243.93889L37.709373 243.93889Q37.709373 243.56389 37.834373 243.20451Q38.053123 242.62639 38.521873 242.06389Q39.00625 241.50139 39.9125 240.76701Q41.31875 239.61076 41.803123 238.93889Q42.303123 238.26701 42.303123 237.67326Q42.303123 237.04826 41.85 236.62639Q41.396873 236.18889 40.678123 236.18889Q39.9125 236.18889 39.459373 236.64201Q39.00625 237.09514 38.990623 237.90764L37.9125 237.79826Q38.021873 236.57951 38.740623 235.95451Q39.475 235.31389 40.709373 235.31389Q41.94375 235.31389 42.6625 236.00139Q43.38125 236.68889 43.38125 237.70451Q43.38125 238.22014 43.1625 238.72014Q42.959373 239.20451 42.459373 239.76701Q41.975 240.31389 40.85 241.26701Q39.896873 242.06389 39.615623 242.36076Q39.35 242.64201 39.178123 242.92326L43.396873 242.92326ZM44.85 239.70451Q44.85 238.17326 45.1625 237.25139Q45.475 236.31389 46.084373 235.81389Q46.709373 235.31389 47.646873 235.31389Q48.334373 235.31389 48.85 235.59514Q49.38125 235.87639 49.725 236.40764Q50.06875 236.92326 50.25625 237.67326Q50.44375 238.42326 50.44375 239.70451Q50.44375 241.22014 50.13125 242.14201Q49.834373 243.06389 49.209373 243.57951Q48.6 244.07951 47.646873 244.07951Q46.4125 244.07951 45.69375 243.18889Q44.85 242.12639 44.85 239.70451ZM45.928123 239.70451Q45.928123 241.81389 46.428123 242.51701Q46.928123 243.22014 47.646873 243.22014Q48.38125 243.22014 48.865623 242.51701Q49.365623 241.81389 49.365623 239.70451Q49.365623 237.57951 48.865623 236.89201Q48.38125 236.18889 47.63125 236.18889Q46.9125 236.18889 46.475 236.79826Q45.928123 237.57951 45.928123 239.70451Z" fill-rule="nonzero"/><path fill="#000000" d="M37.85 83.31771L38.9125 83.177086Q39.084373 84.06771 39.521873 84.47396Q39.959373 84.864586 40.584373 84.864586Q41.334373 84.864586 41.85 84.34896Q42.365623 83.833336 42.365623 83.06771Q42.365623 82.34896 41.88125 81.88021Q41.4125 81.395836 40.678123 81.395836Q40.38125 81.395836 39.928123 81.520836L40.053123 80.583336Q40.1625 80.59896 40.225 80.59896Q40.896873 80.59896 41.428123 80.25521Q41.975 79.895836 41.975 79.16146Q41.975 78.583336 41.584373 78.208336Q41.19375 77.81771 40.56875 77.81771Q39.959373 77.81771 39.5375 78.208336Q39.13125 78.59896 39.021873 79.364586L37.959373 79.177086Q38.146873 78.13021 38.834373 77.552086Q39.521873 76.958336 40.5375 76.958336Q41.240623 76.958336 41.834373 77.270836Q42.428123 77.56771 42.740623 78.083336Q43.053123 78.59896 43.053123 79.19271Q43.053123 79.739586 42.75625 80.208336Q42.459373 80.66146 41.88125 80.927086Q42.63125 81.09896 43.053123 81.66146Q43.475 82.208336 43.475 83.052086Q43.475 84.177086 42.646873 84.958336Q41.834373 85.739586 40.584373 85.739586Q39.459373 85.739586 38.709373 85.06771Q37.959373 84.38021 37.85 83.31771ZM44.85 81.34896Q44.85 79.81771 45.1625 78.895836Q45.475 77.958336 46.084373 77.458336Q46.709373 76.958336 47.646873 76.958336Q48.334373 76.958336 48.85 77.239586Q49.38125 77.520836 49.725 78.052086Q50.06875 78.56771 50.25625 79.31771Q50.44375 80.06771 50.44375 81.34896Q50.44375 82.864586 50.13125 83.78646Q49.834373 84.708336 49.209373 85.22396Q48.6 85.72396 47.646873 85.72396Q46.4125 85.72396 45.69375 84.833336Q44.85 83.770836 44.85 81.34896ZM45.928123 81.34896Q45.928123 83.458336 46.428123 84.16146Q46.928123 84.864586 47.646873 84.864586Q48.38125 84.864586 48.865623 84.16146Q49.365623 83.458336 49.365623 81.34896Q49.365623 79.22396 48.865623 78.53646Q48.38125 77.833336 47.63125 77.833336Q46.9125 77.833336 46.475 78.44271Q45.928123 79.22396 45.928123 81.34896Z" fill-rule="nonzero"/><path fill="#000000" d="M43.725 571.0719L43.725 570.0094L46.975 570.0094L46.975 571.0719L43.725 571.0719ZM53.396873 572.6344L53.396873 573.65L47.709373 573.65Q47.709373 573.275 47.834373 572.91565Q48.053123 572.3375 48.521873 571.775Q49.00625 571.2125 49.9125 570.47815Q51.31875 569.3219 51.803123 568.65Q52.303123 567.97815 52.303123 567.3844Q52.303123 566.7594 51.85 566.3375Q51.396873 565.9 50.678123 565.9Q49.9125 565.9 49.459373 566.35315Q49.00625 566.8063 48.990623 567.6188L47.9125 567.5094Q48.021873 566.29065 48.740623 565.66565Q49.475 565.025 50.709373 565.025Q51.94375 565.025 52.6625 565.7125Q53.38125 566.4 53.38125 567.41565Q53.38125 567.9313 53.1625 568.4313Q52.959373 568.91565 52.459373 569.47815Q51.975 570.025 50.85 570.97815Q49.896873 571.775 49.615623 572.0719Q49.35 572.35315 49.178123 572.6344L53.396873 572.6344ZM55.44375 573.65L55.44375 572.4469L56.646873 572.4469L56.646873 573.65L55.44375 573.65ZM57.85 571.4L58.959373 571.3063Q59.084373 572.1188 59.521873 572.525Q59.975 572.9313 60.615623 572.9313Q61.365623 572.9313 61.896873 572.35315Q62.428123 571.775 62.428123 570.8375Q62.428123 569.9313 61.9125 569.41565Q61.4125 568.8844 60.584373 568.8844Q60.084373 568.8844 59.6625 569.1188Q59.25625 569.35315 59.021873 569.7125L58.0375 569.5875L58.865623 565.1813L63.146873 565.1813L63.146873 566.1813L59.709373 566.1813L59.25625 568.4938Q60.021873 567.9469 60.865623 567.9469Q61.990623 567.9469 62.75625 568.72815Q63.5375 569.5094 63.5375 570.7438Q63.5375 571.9 62.865623 572.7594Q62.0375 573.79065 60.615623 573.79065Q59.44375 573.79065 58.69375 573.1344Q57.959373 572.47815 57.85 571.4ZM64.85 569.41565Q64.85 567.8844 65.1625 566.9625Q65.475 566.025 66.08437 565.525Q66.70937 565.025 67.64687 565.025Q68.33437 565.025 68.85 565.3063Q69.38125 565.5875 69.725 566.1188Q70.06875 566.6344 70.25625 567.3844Q70.44375 568.1344 70.44375 569.41565Q70.44375 570.9313 70.13125 571.85315Q69.83437 572.775 69.20937 573.29065Q68.6 573.79065 67.64687 573.79065Q66.4125 573.79065 65.69375 572.9Q64.85 571.8375 64.85 569.41565ZM65.92812 569.41565Q65.92812 571.525 66.42812 572.22815Q66.92812 572.9313 67.64687 572.9313Q68.38125 572.9313 68.86562 572.22815Q69.36562 571.525 69.36562 569.41565Q69.36562 567.29065 68.86562 566.60315Q68.38125 565.9 67.63125 565.9Q66.9125 565.9 66.475 566.5094Q65.92812 567.29065 65.92812 569.41565Z" fill-rule="nonzero"/><path fill="#000000" d="M118.75 571.0719L118.75 570.0094L122.0 570.0094L122.0 571.0719L118.75 571.0719ZM128.42188 572.6344L128.42188 573.65L122.734375 573.65Q122.734375 573.275 122.859375 572.91565Q123.078125 572.3375 123.546875 571.775Q124.03125 571.2125 124.9375 570.47815Q126.34375 569.3219 126.828125 568.65Q127.328125 567.97815 127.328125 567.3844Q127.328125 566.7594 126.875 566.3375Q126.421875 565.9 125.703125 565.9Q124.9375 565.9 124.484375 566.35315Q124.03125 566.8063 124.015625 567.6188L122.9375 567.5094Q123.046875 566.29065 123.765625 565.66565Q124.5 565.025 125.734375 565.025Q126.96875 565.025 127.6875 565.7125Q128.40625 566.4 128.40625 567.41565Q128.40625 567.9313 128.1875 568.4313Q127.984375 568.91565 127.484375 569.47815Q127.0 570.025 125.875 570.97815Q124.921875 571.775 124.640625 572.0719Q124.375 572.35315 124.203125 572.6344L128.42188 572.6344ZM130.46875 573.65L130.46875 572.4469L131.67188 572.4469L131.67188 573.65L130.46875 573.65ZM132.875 569.41565Q132.875 567.8844 133.1875 566.9625Q133.5 566.025 134.10938 565.525Q134.73438 565.025 135.67188 565.025Q136.35938 565.025 136.875 565.3063Q137.40625 565.5875 137.75 566.1188Q138.09375 566.6344 138.28125 567.3844Q138.46875 568.1344 138.46875 569.41565Q138.46875 570.9313 138.15625 571.85315Q137.85938 572.775 137.23438 573.29065Q136.625 573.79065 135.67188 573.79065Q134.4375 573.79065 133.71875 572.9Q132.875 571.8375 132.875 569.41565ZM133.95312 569.41565Q133.95312 571.525 134.45312 572.22815Q134.95312 572.9313 135.67188 572.9313Q136.40625 572.9313 136.89062 572.22815Q137.39062 571.525 137.39062 569.41565Q137.39062 567.29065 136.89062 566.60315Q136.40625 565.9 135.65625 565.9Q134.9375 565.9 134.5 566.5094Q133.95312 567.29065 133.95312 569.41565ZM143.25 573.65L143.25 571.5875L139.53125 571.5875L139.53125 570.6188L143.45312 565.0563L144.3125 565.0563L144.3125 570.6188L145.46875 570.6188L145.46875 571.5875L144.3125 571.5875L144.3125 573.65L143.25 573.65ZM143.25 570.6188L143.25 566.7594L140.5625 570.6188L143.25 570.6188Z" fill-rule="nonzero"/><path fill="#000000" d="M193.775 571.0719L193.775 570.0094L197.025 570.0094L197.025 571.0719L193.775 571.0719ZM201.86874 573.65L200.82187 573.65L200.82187 566.9313Q200.43124 567.29065 199.80624 567.66565Q199.19687 568.025 198.7125 568.1969L198.7125 567.1813Q199.5875 566.7594 200.24374 566.1813Q200.91562 565.5875 201.19687 565.025L201.86874 565.025L201.86874 573.65ZM205.49374 573.65L205.49374 572.4469L206.69687 572.4469L206.69687 573.65L205.49374 573.65ZM207.9 571.4L209.00937 571.3063Q209.13437 572.1188 209.57187 572.525Q210.025 572.9313 210.66562 572.9313Q211.41562 572.9313 211.94687 572.35315Q212.47812 571.775 212.47812 570.8375Q212.47812 569.9313 211.9625 569.41565Q211.4625 568.8844 210.63437 568.8844Q210.13437 568.8844 209.7125 569.1188Q209.30624 569.35315 209.07187 569.7125L208.0875 569.5875L208.91562 565.1813L213.19687 565.1813L213.19687 566.1813L209.75937 566.1813L209.30624 568.4938Q210.07187 567.9469 210.91562 567.9469Q212.04062 567.9469 212.80624 568.72815Q213.5875 569.5094 213.5875 570.7438Q213.5875 571.9 212.91562 572.7594Q212.0875 573.79065 210.66562 573.79065Q209.49374 573.79065 208.74374 573.1344Q208.00937 572.47815 207.9 571.4ZM216.525 568.9938Q215.86874 568.7438 215.54062 568.3063Q215.22812 567.85315 215.22812 567.2438Q215.22812 566.3063 215.9 565.66565Q216.5875 565.025 217.69687 565.025Q218.82187 565.025 219.50937 565.6813Q220.19687 566.3375 220.19687 567.275Q220.19687 567.8688 219.88437 568.3063Q219.57187 568.7438 218.93124 568.9938Q219.72812 569.2438 220.13437 569.8219Q220.54062 570.4 220.54062 571.1969Q220.54062 572.29065 219.75937 573.04065Q218.99374 573.79065 217.7125 573.79065Q216.44687 573.79065 215.66562 573.04065Q214.88437 572.29065 214.88437 571.16565Q214.88437 570.3219 215.30624 569.7594Q215.74374 569.1969 216.525 568.9938ZM216.30624 567.1969Q216.30624 567.8063 216.69687 568.1969Q217.10312 568.5875 217.72812 568.5875Q218.3375 568.5875 218.72812 568.2125Q219.11874 567.8219 219.11874 567.2594Q219.11874 566.6813 218.7125 566.29065Q218.30624 565.8844 217.7125 565.8844Q217.10312 565.8844 216.69687 566.275Q216.30624 566.66565 216.30624 567.1969ZM215.97812 571.16565Q215.97812 571.6188 216.18124 572.04065Q216.4 572.4625 216.82187 572.6969Q217.24374 572.9313 217.72812 572.9313Q218.47812 572.9313 218.9625 572.4469Q219.4625 571.9625 219.4625 571.2125Q219.4625 570.4469 218.9625 569.9469Q218.4625 569.4469 217.69687 569.4469Q216.94687 569.4469 216.4625 569.9469Q215.97812 570.4313 215.97812 571.16565Z" fill-rule="nonzero"/><path fill="#000000" d="M268.8 571.0719L268.8 570.0094L272.05 570.0094L272.05 571.0719L268.8 571.0719ZM276.89374 573.65L275.84686 573.65L275.84686 566.9313Q275.45624 567.29065 274.83124 567.66565Q274.22186 568.025 273.7375 568.1969L273.7375 567.1813Q274.6125 566.7594 275.26874 566.1813Q275.9406 565.5875 276.22186 565.025L276.89374 565.025L276.89374 573.65ZM280.51874 573.65L280.51874 572.4469L281.72186 572.4469L281.72186 573.65L280.51874 573.65ZM286.89374 573.65L285.84686 573.65L285.84686 566.9313Q285.45624 567.29065 284.83124 567.66565Q284.22186 568.025 283.7375 568.1969L283.7375 567.1813Q284.6125 566.7594 285.26874 566.1813Q285.9406 565.5875 286.22186 565.025L286.89374 565.025L286.89374 573.65ZM289.925 571.3844L290.9875 571.2438Q291.15936 572.1344 291.59686 572.54065Q292.03436 572.9313 292.65936 572.9313Q293.40936 572.9313 293.925 572.41565Q294.4406 571.9 294.4406 571.1344Q294.4406 570.41565 293.95624 569.9469Q293.4875 569.4625 292.7531 569.4625Q292.45624 569.4625 292.0031 569.5875L292.1281 568.65Q292.2375 568.66565 292.3 568.66565Q292.97186 568.66565 293.5031 568.3219Q294.05 567.9625 294.05 567.22815Q294.05 566.65 293.65936 566.275Q293.26874 565.8844 292.64374 565.8844Q292.03436 565.8844 291.6125 566.275Q291.20624 566.66565 291.09686 567.4313L290.03436 567.2438Q290.22186 566.1969 290.90936 565.6188Q291.59686 565.025 292.6125 565.025Q293.3156 565.025 293.90936 565.3375Q294.5031 565.6344 294.8156 566.15Q295.1281 566.66565 295.1281 567.2594Q295.1281 567.8063 294.83124 568.275Q294.53436 568.72815 293.95624 568.9938Q294.70624 569.16565 295.1281 569.72815Q295.55 570.275 295.55 571.1188Q295.55 572.2438 294.72186 573.025Q293.90936 573.8063 292.65936 573.8063Q291.53436 573.8063 290.78436 573.1344Q290.03436 572.4469 289.925 571.3844Z" fill-rule="nonzero"/><path fill="#000000" d="M343.825 571.0719L343.825 570.0094L347.075 570.0094L347.075 571.0719L343.825 571.0719ZM347.95 569.41565Q347.95 567.8844 348.2625 566.9625Q348.575 566.025 349.1844 565.525Q349.8094 565.025 350.7469 565.025Q351.4344 565.025 351.95 565.3063Q352.48126 565.5875 352.825 566.1188Q353.16876 566.6344 353.35626 567.3844Q353.54376 568.1344 353.54376 569.41565Q353.54376 570.9313 353.23126 571.85315Q352.9344 572.775 352.3094 573.29065Q351.7 573.79065 350.7469 573.79065Q349.5125 573.79065 348.79376 572.9Q347.95 571.8375 347.95 569.41565ZM349.02814 569.41565Q349.02814 571.525 349.52814 572.22815Q350.02814 572.9313 350.7469 572.9313Q351.48126 572.9313 351.96564 572.22815Q352.46564 571.525 352.46564 569.41565Q352.46564 567.29065 351.96564 566.60315Q351.48126 565.9 350.73126 565.9Q350.0125 565.9 349.575 566.5094Q349.02814 567.29065 349.02814 569.41565ZM355.54376 573.65L355.54376 572.4469L356.7469 572.4469L356.7469 573.65L355.54376 573.65ZM363.41876 567.16565L362.3719 567.2438Q362.23126 566.6188 361.98126 566.3375Q361.54376 565.8844 360.91876 565.8844Q360.41876 565.8844 360.02814 566.16565Q359.54376 566.54065 359.2469 567.2438Q358.96564 567.9313 358.95 569.2125Q359.325 568.6344 359.8719 568.35315Q360.4344 568.0719 361.04376 568.0719Q362.09064 568.0719 362.825 568.85315Q363.575 569.6344 363.575 570.85315Q363.575 571.66565 363.21564 572.3688Q362.8719 573.0563 362.2625 573.4313Q361.65314 573.79065 360.8875 573.79065Q359.5594 573.79065 358.73126 572.8219Q357.90314 571.85315 357.90314 569.6344Q357.90314 567.1344 358.825 566.0094Q359.6219 565.025 360.98126 565.025Q361.9969 565.025 362.6375 565.60315Q363.29376 566.16565 363.41876 567.16565ZM359.1219 570.8688Q359.1219 571.41565 359.34064 571.91565Q359.575 572.4 359.98126 572.66565Q360.40314 572.9313 360.8719 572.9313Q361.52814 572.9313 362.0125 572.4Q362.4969 571.85315 362.4969 570.9313Q362.4969 570.04065 362.0125 569.525Q361.54376 569.0094 360.825 569.0094Q360.10626 569.0094 359.60626 569.525Q359.1219 570.04065 359.1219 570.8688ZM365.0125 566.1813L365.0125 565.16565L370.575 565.16565L370.575 565.9938Q369.7625 566.8688 368.95 568.3219Q368.15314 569.7594 367.71564 571.29065Q367.3875 572.3688 367.3094 573.65L366.21564 573.65Q366.23126 572.6344 366.60626 571.1969Q366.9969 569.7594 367.7 568.4313Q368.41876 567.10315 369.23126 566.1813L365.0125 566.1813Z" fill-rule="nonzero"/><path fill="#000000" d="M418.85 571.0719L418.85 570.0094L422.1 570.0094L422.1 571.0719L418.85 571.0719ZM422.975 569.41565Q422.975 567.8844 423.2875 566.9625Q423.6 566.025 424.20938 565.525Q424.83438 565.025 425.77188 565.025Q426.45938 565.025 426.975 565.3063Q427.50626 565.5875 427.85 566.1188Q428.19376 566.6344 428.38126 567.3844Q428.56876 568.1344 428.56876 569.41565Q428.56876 570.9313 428.25626 571.85315Q427.95938 572.775 427.33438 573.29065Q426.725 573.79065 425.77188 573.79065Q424.5375 573.79065 423.81876 572.9Q422.975 571.8375 422.975 569.41565ZM424.05313 569.41565Q424.05313 571.525 424.55313 572.22815Q425.05313 572.9313 425.77188 572.9313Q426.50626 572.9313 426.99063 572.22815Q427.49063 571.525 427.49063 569.41565Q427.49063 567.29065 426.99063 566.60315Q426.50626 565.9 425.75626 565.9Q425.0375 565.9 424.6 566.5094Q424.05313 567.29065 424.05313 569.41565ZM430.56876 573.65L430.56876 572.4469L431.77188 572.4469L431.77188 573.65L430.56876 573.65ZM438.52188 572.6344L438.52188 573.65L432.83438 573.65Q432.83438 573.275 432.95938 572.91565Q433.17813 572.3375 433.64688 571.775Q434.13126 571.2125 435.0375 570.47815Q436.44376 569.3219 436.92813 568.65Q437.42813 567.97815 437.42813 567.3844Q437.42813 566.7594 436.975 566.3375Q436.52188 565.9 435.80313 565.9Q435.0375 565.9 434.58438 566.35315Q434.13126 566.8063 434.11563 567.6188L433.0375 567.5094Q433.14688 566.29065 433.86563 565.66565Q434.6 565.025 435.83438 565.025Q437.06876 565.025 437.7875 565.7125Q438.50626 566.4 438.50626 567.41565Q438.50626 567.9313 438.2875 568.4313Q438.08438 568.91565 437.58438 569.47815Q437.1 570.025 435.975 570.97815Q435.02188 571.775 434.74063 572.0719Q434.475 572.35315 434.30313 572.6344L438.52188 572.6344ZM443.94376 573.65L442.89688 573.65L442.89688 566.9313Q442.50626 567.29065 441.88126 567.66565Q441.27188 568.025 440.7875 568.1969L440.7875 567.1813Q441.6625 566.7594 442.31876 566.1813Q442.99063 565.5875 443.27188 565.025L443.94376 565.025L443.94376 573.65Z" fill-rule="nonzero"/><path fill="#000000" d="M496.0 569.41565Q496.0 567.8844 496.3125 566.9625Q496.625 566.025 497.23438 565.525Q497.85938 565.025 498.79688 565.025Q499.48438 565.025 500.0 565.3063Q500.53125 565.5875 500.875 566.1188Q501.21875 566.6344 501.40625 567.3844Q501.59375 568.1344 501.59375 569.41565Q501.59375 570.9313 501.28125 571.85315Q500.98438 572.775 500.35938 573.29065Q499.75 573.79065 498.79688 573.79065Q497.5625 573.79065 496.84375 572.9Q496.0 571.8375 496.0 569.41565ZM497.07812 569.41565Q497.07812 571.525 497.57812 572.22815Q498.07812 572.9313 498.79688 572.9313Q499.53125 572.9313 500.01562 572.22815Q500.51562 571.525 500.51562 569.41565Q500.51562 567.29065 500.01562 566.60315Q499.53125 565.9 498.78125 565.9Q498.0625 565.9 497.625 566.5094Q497.07812 567.29065 497.07812 569.41565ZM503.59375 573.65L503.59375 572.4469L504.79688 572.4469L504.79688 573.65L503.59375 573.65ZM511.54688 572.6344L511.54688 573.65L505.85938 573.65Q505.85938 573.275 505.98438 572.91565Q506.20312 572.3375 506.67188 571.775Q507.15625 571.2125 508.0625 570.47815Q509.46875 569.3219 509.95312 568.65Q510.45312 567.97815 510.45312 567.3844Q510.45312 566.7594 510.0 566.3375Q509.54688 565.9 508.82812 565.9Q508.0625 565.9 507.60938 566.35315Q507.15625 566.8063 507.14062 567.6188L506.0625 567.5094Q506.17188 566.29065 506.89062 565.66565Q507.625 565.025 508.85938 565.025Q510.09375 565.025 510.8125 565.7125Q511.53125 566.4 511.53125 567.41565Q511.53125 567.9313 511.3125 568.4313Q511.10938 568.91565 510.60938 569.47815Q510.125 570.025 509.0 570.97815Q508.04688 571.775 507.76562 572.0719Q507.5 572.35315 507.32812 572.6344L511.54688 572.6344ZM513.0 571.4L514.1094 571.3063Q514.2344 572.1188 514.6719 572.525Q515.125 572.9313 515.7656 572.9313Q516.5156 572.9313 517.0469 572.35315Q517.5781 571.775 517.5781 570.8375Q517.5781 569.9313 517.0625 569.41565Q516.5625 568.8844 515.7344 568.8844Q515.2344 568.8844 514.8125 569.1188Q514.40625 569.35315 514.1719 569.7125L513.1875 569.5875L514.0156 565.1813L518.2969 565.1813L518.2969 566.1813L514.8594 566.1813L514.40625 568.4938Q515.1719 567.9469 516.0156 567.9469Q517.1406 567.9469 517.90625 568.72815Q518.6875 569.5094 518.6875 570.7438Q518.6875 571.9 518.0156 572.7594Q517.1875 573.79065 515.7656 573.79065Q514.59375 573.79065 513.84375 573.1344Q513.1094 572.47815 513.0 571.4Z" fill-rule="nonzero"/><path fill="#000000" d="M571.025 569.41565Q571.025 567.8844 571.3375 566.9625Q571.65 566.025 572.2594 565.525Q572.8844 565.025 573.8219 565.025Q574.5094 565.025 575.025 565.3063Q575.5563 565.5875 575.9 566.1188Q576.2438 566.6344 576.4313 567.3844Q576.6188 568.1344 576.6188 569.41565Q576.6188 570.9313 576.3063 571.85315Q576.0094 572.775 575.3844 573.29065Q574.775 573.79065 573.8219 573.79065Q572.5875 573.79065 571.8688 572.9Q571.025 571.8375 571.025 569.41565ZM572.10315 569.41565Q572.10315 571.525 572.60315 572.22815Q573.10315 572.9313 573.8219 572.9313Q574.5563 572.9313 575.04065 572.22815Q575.54065 571.525 575.54065 569.41565Q575.54065 567.29065 575.04065 566.60315Q574.5563 565.9 573.8063 565.9Q573.0875 565.9 572.65 566.5094Q572.10315 567.29065 572.10315 569.41565ZM578.6188 573.65L578.6188 572.4469L579.8219 572.4469L579.8219 573.65L578.6188 573.65ZM581.0875 566.1813L581.0875 565.16565L586.65 565.16565L586.65 565.9938Q585.8375 566.8688 585.025 568.3219Q584.22815 569.7594 583.79065 571.29065Q583.4625 572.3688 583.3844 573.65L582.29065 573.65Q582.3063 572.6344 582.6813 571.1969Q583.0719 569.7594 583.775 568.4313Q584.4938 567.10315 585.3063 566.1813L581.0875 566.1813ZM591.9938 573.65L590.9469 573.65L590.9469 566.9313Q590.5563 567.29065 589.9313 567.66565Q589.3219 568.025 588.8375 568.1969L588.8375 567.1813Q589.7125 566.7594 590.3688 566.1813Q591.04065 565.5875 591.3219 565.025L591.9938 565.025L591.9938 573.65Z" fill-rule="nonzero"/><path fill="#000000" d="M650.01874 573.65L648.97186 573.65L648.97186 566.9313Q648.58124 567.29065 647.95624 567.66565Q647.34686 568.025 646.8625 568.1969L646.8625 567.1813Q647.7375 566.7594 648.39374 566.1813Q649.0656 565.5875 649.34686 565.025L650.01874 565.025L650.01874 573.65ZM653.64374 573.65L653.64374 572.4469L654.84686 572.4469L654.84686 573.65L653.64374 573.65ZM660.01874 573.65L658.97186 573.65L658.97186 566.9313Q658.58124 567.29065 657.95624 567.66565Q657.34686 568.025 656.8625 568.1969L656.8625 567.1813Q657.7375 566.7594 658.39374 566.1813Q659.0656 565.5875 659.34686 565.025L660.01874 565.025L660.01874 573.65ZM663.1125 566.1813L663.1125 565.16565L668.675 565.16565L668.675 565.9938Q667.8625 566.8688 667.05 568.3219Q666.2531 569.7594 665.8156 571.29065Q665.4875 572.3688 665.40936 573.65L664.3156 573.65Q664.33124 572.6344 664.70624 571.1969Q665.09686 569.7594 665.8 568.4313Q666.51874 567.10315 667.33124 566.1813L663.1125 566.1813Z" fill-rule="nonzero"/><path fill="#000000" d="M725.04376 573.65L723.9969 573.65L723.9969 566.9313Q723.60626 567.29065 722.98126 567.66565Q722.3719 568.025 721.8875 568.1969L721.8875 567.1813Q722.7625 566.7594 723.41876 566.1813Q724.09064 565.5875 724.3719 565.025L725.04376 565.025L725.04376 573.65ZM728.66876 573.65L728.66876 572.4469L729.8719 572.4469L729.8719 573.65L728.66876 573.65ZM736.54376 567.16565L735.4969 567.2438Q735.35626 566.6188 735.10626 566.3375Q734.66876 565.8844 734.04376 565.8844Q733.54376 565.8844 733.15314 566.16565Q732.66876 566.54065 732.3719 567.2438Q732.09064 567.9313 732.075 569.2125Q732.45 568.6344 732.9969 568.35315Q733.5594 568.0719 734.16876 568.0719Q735.21564 568.0719 735.95 568.85315Q736.7 569.6344 736.7 570.85315Q736.7 571.66565 736.34064 572.3688Q735.9969 573.0563 735.3875 573.4313Q734.77814 573.79065 734.0125 573.79065Q732.6844 573.79065 731.85626 572.8219Q731.02814 571.85315 731.02814 569.6344Q731.02814 567.1344 731.95 566.0094Q732.7469 565.025 734.10626 565.025Q735.1219 565.025 735.7625 565.60315Q736.41876 566.16565 736.54376 567.16565ZM732.2469 570.8688Q732.2469 571.41565 732.46564 571.91565Q732.7 572.4 733.10626 572.66565Q733.52814 572.9313 733.9969 572.9313Q734.65314 572.9313 735.1375 572.4Q735.6219 571.85315 735.6219 570.9313Q735.6219 570.04065 735.1375 569.525Q734.66876 569.0094 733.95 569.0094Q733.23126 569.0094 732.73126 569.525Q732.2469 570.04065 732.2469 570.8688ZM738.075 571.3844L739.1375 571.2438Q739.3094 572.1344 739.7469 572.54065Q740.1844 572.9313 740.8094 572.9313Q741.5594 572.9313 742.075 572.41565Q742.59064 571.9 742.59064 571.1344Q742.59064 570.41565 742.10626 569.9469Q741.6375 569.4625 740.90314 569.4625Q740.60626 569.4625 740.15314 569.5875L740.27814 568.65Q740.3875 568.66565 740.45 568.66565Q741.1219 568.66565 741.65314 568.3219Q742.2 567.9625 742.2 567.22815Q742.2 566.65 741.8094 566.275Q741.41876 565.8844 740.79376 565.8844Q740.1844 565.8844 739.7625 566.275Q739.35626 566.66565 739.2469 567.4313L738.1844 567.2438Q738.3719 566.1969 739.0594 565.6188Q739.7469 565.025 740.7625 565.025Q741.46564 565.025 742.0594 565.3375Q742.65314 565.6344 742.96564 566.15Q743.27814 566.66565 743.27814 567.2594Q743.27814 567.8063 742.98126 568.275Q742.6844 568.72815 742.10626 568.9938Q742.85626 569.16565 743.27814 569.72815Q743.7 570.275 743.7 571.1188Q743.7 572.2438 742.8719 573.025Q742.0594 573.8063 740.8094 573.8063Q739.6844 573.8063 738.9344 573.1344Q738.1844 572.4469 738.075 571.3844Z" fill-rule="nonzero"/><path fill="#000000" d="M801.64685 572.6344L801.64685 573.65L795.95935 573.65Q795.95935 573.275 796.08435 572.91565Q796.3031 572.3375 796.77185 571.775Q797.2562 571.2125 798.1625 570.47815Q799.5687 569.3219 800.0531 568.65Q800.5531 567.97815 800.5531 567.3844Q800.5531 566.7594 800.1 566.3375Q799.64685 565.9 798.9281 565.9Q798.1625 565.9 797.70935 566.35315Q797.2562 566.8063 797.2406 567.6188L796.1625 567.5094Q796.27185 566.29065 796.9906 565.66565Q797.725 565.025 798.95935 565.025Q800.1937 565.025 800.9125 565.7125Q801.6312 566.4 801.6312 567.41565Q801.6312 567.9313 801.4125 568.4313Q801.20935 568.91565 800.70935 569.47815Q800.225 570.025 799.1 570.97815Q798.14685 571.775 797.8656 572.0719Q797.6 572.35315 797.4281 572.6344L801.64685 572.6344ZM803.6937 573.65L803.6937 572.4469L804.89685 572.4469L804.89685 573.65L803.6937 573.65ZM806.1 569.41565Q806.1 567.8844 806.4125 566.9625Q806.725 566.025 807.33435 565.525Q807.95935 565.025 808.89685 565.025Q809.58435 565.025 810.1 565.3063Q810.6312 565.5875 810.975 566.1188Q811.3187 566.6344 811.5062 567.3844Q811.6937 568.1344 811.6937 569.41565Q811.6937 570.9313 811.3812 571.85315Q811.08435 572.775 810.45935 573.29065Q809.85 573.79065 808.89685 573.79065Q807.6625 573.79065 806.9437 572.9Q806.1 571.8375 806.1 569.41565ZM807.1781 569.41565Q807.1781 571.525 807.6781 572.22815Q808.1781 572.9313 808.89685 572.9313Q809.6312 572.9313 810.1156 572.22815Q810.6156 571.525 810.6156 569.41565Q810.6156 567.29065 810.1156 566.60315Q809.6312 565.9 808.8812 565.9Q808.1625 565.9 807.725 566.5094Q807.1781 567.29065 807.1781 569.41565ZM814.725 568.9938Q814.0687 568.7438 813.7406 568.3063Q813.4281 567.85315 813.4281 567.2438Q813.4281 566.3063 814.1 565.66565Q814.7875 565.025 815.89685 565.025Q817.02185 565.025 817.70935 565.6813Q818.39685 566.3375 818.39685 567.275Q818.39685 567.8688 818.08435 568.3063Q817.77185 568.7438 817.1312 568.9938Q817.9281 569.2438 818.33435 569.8219Q818.7406 570.4 818.7406 571.1969Q818.7406 572.29065 817.95935 573.04065Q817.1937 573.79065 815.9125 573.79065Q814.64685 573.79065 813.8656 573.04065Q813.08435 572.29065 813.08435 571.16565Q813.08435 570.3219 813.5062 569.7594Q813.9437 569.1969 814.725 568.9938ZM814.5062 567.1969Q814.5062 567.8063 814.89685 568.1969Q815.3031 568.5875 815.9281 568.5875Q816.5375 568.5875 816.9281 568.2125Q817.3187 567.8219 817.3187 567.2594Q817.3187 566.6813 816.9125 566.29065Q816.5062 565.8844 815.9125 565.8844Q815.3031 565.8844 814.89685 566.275Q814.5062 566.66565 814.5062 567.1969ZM814.1781 571.16565Q814.1781 571.6188 814.3812 572.04065Q814.6 572.4625 815.02185 572.6969Q815.4437 572.9313 815.9281 572.9313Q816.6781 572.9313 817.1625 572.4469Q817.6625 571.9625 817.6625 571.2125Q817.6625 570.4469 817.1625 569.9469Q816.6625 569.4469 815.89685 569.4469Q815.14685 569.4469 814.6625 569.9469Q814.1781 570.4313 814.1781 571.16565Z" fill-rule="nonzero"/><path fill="#000000" d="M876.6719 572.6344L876.6719 573.65L870.9844 573.65Q870.9844 573.275 871.1094 572.91565Q871.3281 572.3375 871.7969 571.775Q872.28125 571.2125 873.1875 570.47815Q874.59375 569.3219 875.0781 568.65Q875.5781 567.97815 875.5781 567.3844Q875.5781 566.7594 875.125 566.3375Q874.6719 565.9 873.9531 565.9Q873.1875 565.9 872.7344 566.35315Q872.28125 566.8063 872.2656 567.6188L871.1875 567.5094Q871.2969 566.29065 872.0156 565.66565Q872.75 565.025 873.9844 565.025Q875.21875 565.025 875.9375 565.7125Q876.65625 566.4 876.65625 567.41565Q876.65625 567.9313 876.4375 568.4313Q876.2344 568.91565 875.7344 569.47815Q875.25 570.025 874.125 570.97815Q873.1719 571.775 872.8906 572.0719Q872.625 572.35315 872.4531 572.6344L876.6719 572.6344ZM878.71875 573.65L878.71875 572.4469L879.9219 572.4469L879.9219 573.65L878.71875 573.65ZM881.125 571.4L882.2344 571.3063Q882.3594 572.1188 882.7969 572.525Q883.25 572.9313 883.8906 572.9313Q884.6406 572.9313 885.1719 572.35315Q885.7031 571.775 885.7031 570.8375Q885.7031 569.9313 885.1875 569.41565Q884.6875 568.8844 883.8594 568.8844Q883.3594 568.8844 882.9375 569.1188Q882.53125 569.35315 882.2969 569.7125L881.3125 569.5875L882.1406 565.1813L886.4219 565.1813L886.4219 566.1813L882.9844 566.1813L882.53125 568.4938Q883.2969 567.9469 884.1406 567.9469Q885.2656 567.9469 886.03125 568.72815Q886.8125 569.5094 886.8125 570.7438Q886.8125 571.9 886.1406 572.7594Q885.3125 573.79065 883.8906 573.79065Q882.71875 573.79065 881.96875 573.1344Q881.2344 572.47815 881.125 571.4ZM891.5 573.65L891.5 571.5875L887.78125 571.5875L887.78125 570.6188L891.7031 565.0563L892.5625 565.0563L892.5625 570.6188L893.71875 570.6188L893.71875 571.5875L892.5625 571.5875L892.5625 573.65L891.5 573.65ZM891.5 570.6188L891.5 566.7594L888.8125 570.6188L891.5 570.6188Z" fill-rule="nonzero"/><path fill="#000000" d="M946.15 571.3844L947.2125 571.2438Q947.3844 572.1344 947.8219 572.54065Q948.2594 572.9313 948.8844 572.9313Q949.6344 572.9313 950.15 572.41565Q950.66565 571.9 950.66565 571.1344Q950.66565 570.41565 950.1813 569.9469Q949.7125 569.4625 948.97815 569.4625Q948.6813 569.4625 948.22815 569.5875L948.35315 568.65Q948.4625 568.66565 948.525 568.66565Q949.1969 568.66565 949.72815 568.3219Q950.275 567.9625 950.275 567.22815Q950.275 566.65 949.8844 566.275Q949.4938 565.8844 948.8688 565.8844Q948.2594 565.8844 947.8375 566.275Q947.4313 566.66565 947.3219 567.4313L946.2594 567.2438Q946.4469 566.1969 947.1344 565.6188Q947.8219 565.025 948.8375 565.025Q949.54065 565.025 950.1344 565.3375Q950.72815 565.6344 951.04065 566.15Q951.35315 566.66565 951.35315 567.2594Q951.35315 567.8063 951.0563 568.275Q950.7594 568.72815 950.1813 568.9938Q950.9313 569.16565 951.35315 569.72815Q951.775 570.275 951.775 571.1188Q951.775 572.2438 950.9469 573.025Q950.1344 573.8063 948.8844 573.8063Q947.7594 573.8063 947.0094 573.1344Q946.2594 572.4469 946.15 571.3844ZM953.7438 573.65L953.7438 572.4469L954.9469 572.4469L954.9469 573.65L953.7438 573.65ZM956.15 569.41565Q956.15 567.8844 956.4625 566.9625Q956.775 566.025 957.3844 565.525Q958.0094 565.025 958.9469 565.025Q959.6344 565.025 960.15 565.3063Q960.6813 565.5875 961.025 566.1188Q961.3688 566.6344 961.5563 567.3844Q961.7438 568.1344 961.7438 569.41565Q961.7438 570.9313 961.4313 571.85315Q961.1344 572.775 960.5094 573.29065Q959.9 573.79065 958.9469 573.79065Q957.7125 573.79065 956.9938 572.9Q956.15 571.8375 956.15 569.41565ZM957.22815 569.41565Q957.22815 571.525 957.72815 572.22815Q958.22815 572.9313 958.9469 572.9313Q959.6813 572.9313 960.16565 572.22815Q960.66565 571.525 960.66565 569.41565Q960.66565 567.29065 960.16565 566.60315Q959.6813 565.9 958.9313 565.9Q958.2125 565.9 957.775 566.5094Q957.22815 567.29065 957.22815 569.41565ZM963.15 569.41565Q963.15 567.8844 963.4625 566.9625Q963.775 566.025 964.3844 565.525Q965.0094 565.025 965.9469 565.025Q966.6344 565.025 967.15 565.3063Q967.6813 565.5875 968.025 566.1188Q968.3688 566.6344 968.5563 567.3844Q968.7438 568.1344 968.7438 569.41565Q968.7438 570.9313 968.4313 571.85315Q968.1344 572.775 967.5094 573.29065Q966.9 573.79065 965.9469 573.79065Q964.7125 573.79065 963.9938 572.9Q963.15 571.8375 963.15 569.41565ZM964.22815 569.41565Q964.22815 571.525 964.72815 572.22815Q965.22815 572.9313 965.9469 572.9313Q966.6813 572.9313 967.16565 572.22815Q967.66565 571.525 967.66565 569.41565Q967.66565 567.29065 967.16565 566.60315Q966.6813 565.9 965.9313 565.9Q965.2125 565.9 964.775 566.5094Q964.22815 567.29065 964.22815 569.41565Z" fill-rule="nonzero"/><path fill="#757575" d="M30.75625 49.35L30.75625 47.584373L38.084373 38.428123Q38.865623 37.44375 39.56875 36.725L31.584375 36.725L31.584375 35.0375L41.834373 35.0375L41.834373 36.725L33.803123 46.646873L32.928123 47.6625L42.06875 47.6625L42.06875 49.35L30.75625 49.35ZM42.990623 45.053123L42.990623 43.2875L48.38125 43.2875L48.38125 45.053123L42.990623 45.053123ZM50.25625 44.75625L52.0375 44.6Q52.1625 45.6625 52.615623 46.35Q53.084373 47.0375 54.053123 47.475Q55.0375 47.896873 56.271873 47.896873Q57.35 47.896873 58.178123 47.584373Q59.00625 47.25625 59.4125 46.69375Q59.81875 46.13125 59.81875 45.459373Q59.81875 44.7875 59.428123 44.2875Q59.0375 43.7875 58.146873 43.44375Q57.56875 43.209373 55.584373 42.740623Q53.615623 42.271873 52.834373 41.85Q51.803123 41.31875 51.303123 40.521873Q50.803123 39.725 50.803123 38.740623Q50.803123 37.646873 51.4125 36.709373Q52.021873 35.771873 53.209373 35.2875Q54.396873 34.7875 55.834373 34.7875Q57.428123 34.7875 58.646873 35.303123Q59.865623 35.81875 60.50625 36.81875Q61.1625 37.803123 61.209373 39.06875L59.396873 39.209373Q59.25625 37.85 58.4125 37.1625Q57.56875 36.459373 55.9125 36.459373Q54.19375 36.459373 53.396873 37.1Q52.615623 37.725 52.615623 38.6Q52.615623 39.38125 53.178123 39.88125Q53.725 40.38125 56.0375 40.896873Q58.35 41.4125 59.209373 41.803123Q60.459373 42.38125 61.053123 43.271873Q61.646873 44.146873 61.646873 45.303123Q61.646873 46.44375 60.990623 47.459373Q60.334373 48.475 59.1 49.0375Q57.88125 49.6 56.35 49.6Q54.4125 49.6 53.1 49.0375Q51.7875 48.459373 51.0375 47.31875Q50.2875 46.178123 50.25625 44.75625ZM74.11562 44.334373L76.00625 44.803123Q75.4125 47.146873 73.86562 48.38125Q72.31875 49.6 70.06875 49.6Q67.75625 49.6 66.30312 48.6625Q64.86562 47.709373 64.1 45.928123Q63.35 44.13125 63.35 42.084373Q63.35 39.85 64.19375 38.19375Q65.05312 36.521873 66.63125 35.6625Q68.20937 34.7875 70.1 34.7875Q72.25625 34.7875 73.70937 35.88125Q75.17812 36.975 75.75625 38.959373L73.89687 39.396873Q73.39687 37.834373 72.44375 37.13125Q71.50625 36.4125 70.06875 36.4125Q68.4125 36.4125 67.30312 37.209373Q66.19375 37.990623 65.74062 39.334373Q65.30312 40.6625 65.30312 42.06875Q65.30312 43.896873 65.83437 45.271873Q66.36562 46.63125 67.49062 47.303123Q68.61562 47.975 69.9125 47.975Q71.50625 47.975 72.61562 47.053123Q73.725 46.13125 74.11562 44.334373ZM77.31875 42.38125Q77.31875 38.81875 79.225 36.803123Q81.14687 34.771873 84.17812 34.771873Q86.1625 34.771873 87.74062 35.725Q89.33437 36.678123 90.1625 38.38125Q91.00625 40.06875 91.00625 42.209373Q91.00625 44.38125 90.13125 46.1Q89.25625 47.81875 87.63125 48.709373Q86.02187 49.6 84.1625 49.6Q82.14687 49.6 80.55312 48.63125Q78.95937 47.646873 78.13125 45.959373Q77.31875 44.25625 77.31875 42.38125ZM79.27187 42.4125Q79.27187 44.990623 80.6625 46.490623Q82.05312 47.975 84.14687 47.975Q86.2875 47.975 87.6625 46.475Q89.05312 44.959373 89.05312 42.19375Q89.05312 40.459373 88.45937 39.1625Q87.88125 37.85 86.74062 37.13125Q85.6 36.4125 84.17812 36.4125Q82.17812 36.4125 80.725 37.803123Q79.27187 39.178123 79.27187 42.4125ZM93.92812 49.35L93.92812 35.0375L100.27187 35.0375Q102.17812 35.0375 103.17812 35.428123Q104.17812 35.803123 104.77187 36.7875Q105.36562 37.75625 105.36562 38.94375Q105.36562 40.459373 104.38125 41.50625Q103.39687 42.553123 101.33437 42.834373Q102.08437 43.19375 102.475 43.553123Q103.30312 44.303123 104.05312 45.459373L106.5375 49.35L104.1625 49.35L102.25625 46.365623Q101.42812 45.084373 100.89687 44.396873Q100.36562 43.709373 99.92812 43.44375Q99.50625 43.1625 99.06875 43.053123Q98.74062 42.990623 98.02187 42.990623L95.81875 42.990623L95.81875 49.35L93.92812 49.35ZM95.81875 41.35L99.89687 41.35Q101.19375 41.35 101.9125 41.084373Q102.64687 40.81875 103.02187 40.225Q103.4125 39.63125 103.4125 38.94375Q103.4125 37.928123 102.67812 37.271873Q101.94375 36.615623 100.35 36.615623L95.81875 36.615623L95.81875 41.35ZM107.92812 49.35L107.92812 35.0375L118.2875 35.0375L118.2875 36.725L109.83437 36.725L109.83437 41.1L117.74062 41.1L117.74062 42.7875L109.83437 42.7875L109.83437 47.6625L118.61562 47.6625L118.61562 49.35L107.92812 49.35ZM126.89687 49.35L126.89687 35.0375L131.81876 35.0375Q133.49063 35.0375 134.38126 35.240623Q135.6 35.521873 136.475 36.25625Q137.6 37.225 138.1625 38.709373Q138.725 40.19375 138.725 42.115623Q138.725 43.740623 138.35 45.00625Q137.975 46.25625 137.36563 47.084373Q136.77188 47.9125 136.06876 48.396873Q135.36563 48.865623 134.36563 49.115623Q133.36563 49.35 132.05313 49.35L126.89687 49.35ZM128.7875 47.6625L131.85 47.6625Q133.25626 47.6625 134.05313 47.396873Q134.86563 47.13125 135.35 46.646873Q136.02188 45.975 136.39688 44.85Q136.77188 43.709373 136.77188 42.084373Q136.77188 39.834373 136.0375 38.63125Q135.30313 37.428123 134.24063 37.021873Q133.49063 36.725 131.80313 36.725L128.7875 36.725L128.7875 47.6625ZM141.20938 49.35L141.20938 35.0375L143.11563 35.0375L143.11563 49.35L141.20938 49.35ZM146.25626 44.75625L148.0375 44.6Q148.1625 45.6625 148.61563 46.35Q149.08438 47.0375 150.05313 47.475Q151.0375 47.896873 152.27188 47.896873Q153.35 47.896873 154.17813 47.584373Q155.00626 47.25625 155.4125 46.69375Q155.81876 46.13125 155.81876 45.459373Q155.81876 44.7875 155.42813 44.2875Q155.0375 43.7875 154.14688 43.44375Q153.56876 43.209373 151.58438 42.740623Q149.61563 42.271873 148.83438 41.85Q147.80313 41.31875 147.30313 40.521873Q146.80313 39.725 146.80313 38.740623Q146.80313 37.646873 147.4125 36.709373Q148.02188 35.771873 149.20938 35.2875Q150.39688 34.7875 151.83438 34.7875Q153.42813 34.7875 154.64688 35.303123Q155.86563 35.81875 156.50626 36.81875Q157.1625 37.803123 157.20938 39.06875L155.39688 39.209373Q155.25626 37.85 154.4125 37.1625Q153.56876 36.459373 151.9125 36.459373Q150.19376 36.459373 149.39688 37.1Q148.61563 37.725 148.61563 38.6Q148.61563 39.38125 149.17813 39.88125Q149.725 40.38125 152.0375 40.896873Q154.35 41.4125 155.20938 41.803123Q156.45938 42.38125 157.05313 43.271873Q157.64688 44.146873 157.64688 45.303123Q157.64688 46.44375 156.99063 47.459373Q156.33438 48.475 155.1 49.0375Q153.88126 49.6 152.35 49.6Q150.4125 49.6 149.1 49.0375Q147.7875 48.459373 147.0375 47.31875Q146.2875 46.178123 146.25626 44.75625ZM163.5375 49.35L163.5375 36.725L158.81876 36.725L158.81876 35.0375L170.1625 35.0375L170.1625 36.725L165.42813 36.725L165.42813 49.35L163.5375 49.35ZM171.92813 49.35L171.92813 35.0375L178.27188 35.0375Q180.17813 35.0375 181.17813 35.428123Q182.17813 35.803123 182.77188 36.7875Q183.36563 37.75625 183.36563 38.94375Q183.36563 40.459373 182.38126 41.50625Q181.39688 42.553123 179.33438 42.834373Q180.08438 43.19375 180.475 43.553123Q181.30313 44.303123 182.05313 45.459373L184.5375 49.35L182.1625 49.35L180.25626 46.365623Q179.42813 45.084373 178.89688 44.396873Q178.36563 43.709373 177.92813 43.44375Q177.50626 43.1625 177.06876 43.053123Q176.74063 42.990623 176.02188 42.990623L173.81876 42.990623L173.81876 49.35L171.92813 49.35ZM173.81876 41.35L177.89688 41.35Q179.19376 41.35 179.9125 41.084373Q180.64688 40.81875 181.02188 40.225Q181.4125 39.63125 181.4125 38.94375Q181.4125 37.928123 180.67813 37.271873Q179.94376 36.615623 178.35 36.615623L173.81876 36.615623L173.81876 41.35ZM186.20938 49.35L186.20938 35.0375L188.11563 35.0375L188.11563 49.35L186.20938 49.35ZM191.81876 49.35L191.81876 35.0375L197.19376 35.0375Q198.83438 35.0375 199.81876 35.475Q200.80313 35.896873 201.36563 36.803123Q201.92813 37.709373 201.92813 38.69375Q201.92813 39.615623 201.42813 40.428123Q200.94376 41.240623 199.92813 41.725Q201.225 42.115623 201.92813 43.0375Q202.63126 43.94375 202.63126 45.19375Q202.63126 46.209373 202.19376 47.06875Q201.77188 47.928123 201.14688 48.396873Q200.52188 48.865623 199.58438 49.115623Q198.64688 49.35 197.27188 49.35L191.81876 49.35ZM193.70938 41.053123L196.80313 41.053123Q198.06876 41.053123 198.61563 40.88125Q199.33438 40.6625 199.69376 40.178123Q200.06876 39.678123 200.06876 38.9125Q200.06876 38.209373 199.725 37.6625Q199.38126 37.115623 198.74063 36.928123Q198.11563 36.725 196.56876 36.725L193.70938 36.725L193.70938 41.053123ZM193.70938 47.6625L197.27188 47.6625Q198.19376 47.6625 198.56876 47.584373Q199.225 47.475 199.6625 47.209373Q200.1 46.928123 200.38126 46.4125Q200.6625 45.88125 200.6625 45.19375Q200.6625 44.396873 200.25626 43.803123Q199.85 43.209373 199.11563 42.975Q198.38126 42.740623 197.02188 42.740623L193.70938 42.740623L193.70938 47.6625ZM214.2875 35.0375L216.17813 35.0375L216.17813 43.303123Q216.17813 45.459373 215.69376 46.740623Q215.20938 48.00625 213.92813 48.803123Q212.6625 49.6 210.58438 49.6Q208.56876 49.6 207.2875 48.9125Q206.02188 48.209373 205.475 46.896873Q204.92813 45.584373 204.92813 43.303123L204.92813 35.0375L206.81876 35.0375L206.81876 43.2875Q206.81876 45.1625 207.1625 46.053123Q207.50626 46.928123 208.35 47.4125Q209.19376 47.88125 210.42813 47.88125Q212.50626 47.88125 213.39688 46.94375Q214.2875 45.990623 214.2875 43.2875L214.2875 35.0375ZM221.5375 49.35L221.5375 36.725L216.81876 36.725L216.81876 35.0375L228.1625 35.0375L228.1625 36.725L223.42813 36.725L223.42813 49.35L221.5375 49.35ZM230.20938 49.35L230.20938 35.0375L232.11563 35.0375L232.11563 49.35L230.20938 49.35ZM235.31876 42.38125Q235.31876 38.81875 237.225 36.803123Q239.14688 34.771873 242.17813 34.771873Q244.1625 34.771873 245.74063 35.725Q247.33438 36.678123 248.1625 38.38125Q249.00626 40.06875 249.00626 42.209373Q249.00626 44.38125 248.13126 46.1Q247.25626 47.81875 245.63126 48.709373Q244.02188 49.6 242.1625 49.6Q240.14688 49.6 238.55313 48.63125Q236.95938 47.646873 236.13126 45.959373Q235.31876 44.25625 235.31876 42.38125ZM237.27188 42.4125Q237.27188 44.990623 238.6625 46.490623Q240.05313 47.975 242.14688 47.975Q244.2875 47.975 245.6625 46.475Q247.05313 44.959373 247.05313 42.19375Q247.05313 40.459373 246.45938 39.1625Q245.88126 37.85 244.74063 37.13125Q243.6 36.4125 242.17813 36.4125Q240.17813 36.4125 238.725 37.803123Q237.27188 39.178123 237.27188 42.4125ZM251.88126 49.35L251.88126 35.0375L253.81876 35.0375L261.33438 46.271873L261.33438 35.0375L263.14688 35.0375L263.14688 49.35L261.20938 49.35L253.69376 38.1L253.69376 49.35L251.88126 49.35Z" fill-rule="nonzero"/></svg>